<?xml version="1.0" encoding="utf-8"?>
<!-- Generator: Adobe Illustrator 26.0.3, SVG Export Plug-In . SVG Version: 6.00 Build 0)  -->
<svg version="1.1" id="Layer_1" xmlns="http://www.w3.org/2000/svg" xmlns:xlink="http://www.w3.org/1999/xlink" x="0px" y="0px"
	 viewBox="0 0 500 50" style="enable-background:new 0 0 500 50;" xml:space="preserve">
<style type="text/css">
	.st0{fill:#FFFFFF;}
	.st1{font-family:'ArialMT';}
	.st2{font-size:30px;}
</style>
<text transform="matrix(1 0 0 1 121.665 -107.2344)" class="st0 st1 st2"> </text>
<text transform="matrix(1 0 0 1 160.0098 -77.2344)" class="st0 st1 st2"> </text>
<text transform="matrix(1 0 0 1 201.665 -47.2344)" class="st0 st1 st2"> </text>
<text transform="matrix(1 0 0 1 320.0098 42.7656)" class="st0 st1 st2"> </text>
<text transform="matrix(1 0 0 1 60 30.7656)" class="st0 st1 st2">A</text>
<text transform="matrix(1 0 0 1 100 30.7656)" class="st0 st1 st2">N</text>
<text transform="matrix(1 0 0 1 140 25)" class="st0 st1 st2">G</text>
<text transform="matrix(1 0 0 1 243.335 -17.2344)" class="st0 st1 st2"> </text>
<text transform="matrix(1 0 0 1 169.2002 35)" class="st0 st1 st2">M</text>
<text transform="matrix(1 0 0 1 284.9902 12.7656)" class="st0 st1 st2"> </text>
<text transform="matrix(1 0 0 1 300 42.7656)" class="st0 st1 st2">A</text>
<text transform="matrix(1 0 0 1 250 36)" class="st0 st1 st2">N</text>
<rect x="20" y="35" width="20" height="2" fill="white"/>
<rect x="60" y="35" width="20" height="2" fill="white"/>
<rect x="100" y="35" width="20" height="2" fill="white"/>
<rect x="140" y="35" width="20" height="2" fill="white"/>
<rect x="180" y="35" width="20" height="2" fill="white"/>
<rect x="220" y="35" width="20" height="2" fill="white"/>
<rect x="260" y="35" width="20" height="2" fill="white"/>
<text transform="matrix(1 0 0 1 18.6667 29.2218)" class="st0 st1 st2">H</text>
</svg>
